<?xml version="1.0" encoding="utf-8"?>
<!-- Svg Vector Icons : http://www.onlinewebfonts.com/icon -->
<!DOCTYPE svg PUBLIC "-//W3C//DTD SVG 1.1//EN" "http://www.w3.org/Graphics/SVG/1.1/DTD/svg11.dtd">
<svg version="1.1" xmlns="http://www.w3.org/2000/svg" xmlns:xlink="http://www.w3.org/1999/xlink" x="0px" y="0px" viewBox="0 0 1000 1000" enable-background="new 0 0 1000 1000" xml:space="preserve">
<metadata> Svg Vector Icons : http://www.onlinewebfonts.com/icon </metadata>
<g><path d="M987.5,946.5c-39.9-170.8-168.8-308.3-337.6-360c97.1-52.4,163.6-152.4,163.6-268.7c0-170-140.5-307.8-313.8-307.8c-173.3,0-313.8,137.8-313.8,307.8c0,116.3,66.6,216.4,163.6,268.8C179.5,638.6,49.9,777.7,11,950.2c-0.2,0.3-0.2,0.7-0.1,1.1c-0.6,2.4-0.9,4.9-0.9,7.5c0,17.3,14,31.3,31.3,31.3c16.6,0,30.2-12.9,31.2-29.3c44.3-191.4,218.7-334.4,427.2-334.4c209.8,0,384.9,144.6,427.9,337.8l-0.3,0c0.3,0.1,0.5,0.2,0.8,0.3c2.7,14.5,15.4,25.5,30.7,25.5c17.3,0,31.3-14,31.3-31.3C990,954.4,989.1,950.3,987.5,946.5z M250.1,317.8c0-135.2,111.7-244.9,249.6-244.9c137.8,0,249.6,109.6,249.6,244.9c0,135.2-111.8,244.9-249.6,244.9C361.8,562.6,250.1,453,250.1,317.8z"/></g>
</svg>